<mxfile host="app.diagrams.net" modified="2024-01-19T09:56:02.878Z" agent="Mozilla/5.0 (Windows NT 10.0; Win64; x64) AppleWebKit/537.36 (KHTML, like Gecko) Chrome/120.0.0.0 Safari/537.36 Edg/120.0.0.0" version="22.1.21" etag="ohxjpve74bDaXx3Hp8d4" type="github">
  <diagram name="Страница — 1" id="9r835EjkgqEwDdI7bCtx">
    <mxGraphModel>
      <root>
        <mxCell id="0" />
        <mxCell id="1" parent="0" />
      </root>
    </mxGraphModel>
  </diagram>
</mxfile>
